<svg width="23" height="27" viewBox="0 0 23 27" fill="none" xmlns="http://www.w3.org/2000/svg">
<g clip-path="url(#clip0_69_985)">
<path d="M18.436 14.271C18.436 12.046 19.652 10.105 21.456 9.07698C20.514 7.92098 19.097 6.88498 17.535 6.58098C15.405 6.16598 14.19 6.85698 13.404 7.13398C12.618 7.41098 11.574 7.65998 11.574 7.65998C11.574 7.65998 10.531 7.41098 9.74399 7.13398C8.95899 6.85698 7.74399 6.16498 5.61399 6.57998C3.48399 6.99498 1.62399 8.77198 0.867987 10.356C-0.590013 13.413 0.00998688 17.259 1.03999 20.025C2.06899 22.792 4.78999 26.658 6.89999 26.969C8.40099 27.19 9.32999 26.153 11.574 25.89C13.818 26.153 14.747 27.19 16.248 26.969C18.358 26.658 21.079 22.792 22.108 20.025C22.133 19.957 22.159 19.887 22.184 19.817C19.987 18.935 18.436 16.784 18.436 14.271ZM11.041 6.07498C11.041 6.07498 13.128 6.35198 15.023 4.19998C16.918 2.04798 16.379 0.0119765 16.379 0.0119765C16.379 0.0119765 14.292 -0.265023 12.397 1.88698C10.502 4.03898 11.041 6.07498 11.041 6.07498Z" fill="black"/>
</g>
<defs>
<clipPath id="clip0_69_985">
<rect width="22.185" height="27" fill="white"/>
</clipPath>
</defs>
</svg>
